# xmcd
# 
# Track frame offsets:
#     150
#     13229
#     25177
#     35720
#     48202
#     60401
#     75907
#     89224
#     101991
#     119142
#     130778
#     141318
#     150813
#     164475
#     175665
# 
# Disc length: 2493
# 
# Revision: 3
# Processed by: cddbd v1.5.2PL0 Copyright (c) Steve Scherf et al.
# Submitted via: fre:ac v1.0.27
# 
DISCID=c509bb0f
DTITLE=Various Artist - Uncut 2005 02: The Rolling Stones - The Devil's Jukebox
DYEAR=2005
DGENRE=Blues Rock
TTITLE0=Elmore James - Dust My Broom
TTITLE1=Jimmy Read - Bright Lights, Big City
TTITLE2=Buddy Holly - Bo Diddley
TTITLE3=Big Joe Williams - Baby Please Don't Go
TTITLE4=Sonny Terry and Brownie McGhee - Whoopin' The Blues
TTITLE5=Albert King - Born Under A Bad Sign
TTITLE6=Howlin' Wolf - My Baby Walked Off
TTITLE7=Bobby Womack - It's All Over Now
TTITLE8=Muddy Waters - I've Got My Mojo Working
TTITLE9=Ike and Tina Turner - It's Gonna Work Out Fine
TTITLE10=Robert Johnson - Love In Vain
TTITLE11=Gene Allison - You Can Make It If You Try
TTITLE12=Big Bill Broonzy - Key To The Highway
TTITLE13=John Lee Hooker - This Is Hip
TTITLE14=Art Neville and The Meters - Bo Diddley
EXTD=
EXTT0=
EXTT1=
EXTT2=
EXTT3=
EXTT4=
EXTT5=
EXTT6=
EXTT7=
EXTT8=
EXTT9=
EXTT10=
EXTT11=
EXTT12=
EXTT13=
EXTT14=
PLAYORDER=
